<?xml version="1.0" standalone="no"?>
<!DOCTYPE svg PUBLIC "-//W3C//DTD SVG 20010904//EN"
 "http://www.w3.org/TR/2001/REC-SVG-20010904/DTD/svg10.dtd">
<svg version="1.0" xmlns="http://www.w3.org/2000/svg"
 width="1239.000000pt" height="1239.000000pt" viewBox="0 0 1239.000000 1239.000000"
 preserveAspectRatio="xMidYMid meet">
<metadata>
Created by potrace 1.11, written by Peter Selinger 2001-2013
</metadata>
<g transform="translate(0.000000,1239.000000) scale(0.100000,-0.100000)"
fill="#000000" stroke="none">
<path d="M6150 12370 c-30 -9 -86 -36 -125 -60 -38 -23 -162 -96 -275 -160
-113 -65 -243 -140 -290 -167 -172 -101 -353 -205 -398 -230 -26 -14 -51 -29
-57 -33 -5 -4 -30 -19 -55 -32 -25 -14 -85 -49 -135 -78 -49 -29 -106 -62
-125 -72 -40 -23 -198 -114 -220 -127 -8 -5 -85 -50 -170 -99 -85 -49 -227
-131 -315 -182 -88 -51 -173 -101 -190 -111 -16 -10 -37 -22 -45 -26 -8 -4
-123 -70 -255 -146 -132 -77 -256 -149 -275 -159 -19 -11 -165 -96 -325 -188
-430 -249 -605 -350 -654 -378 -95 -53 -147 -83 -161 -92 -8 -5 -53 -31 -100
-57 -47 -27 -327 -188 -623 -357 l-537 -308 -1 -617 c-1 -738 -1 -3911 0
-4902 l1 -705 86 -50 c48 -27 98 -56 113 -64 14 -9 61 -36 104 -60 43 -25 86
-50 95 -55 9 -6 48 -28 87 -50 94 -54 64 -37 441 -255 185 -107 358 -207 383
-221 25 -14 219 -126 431 -249 212 -122 405 -234 430 -248 25 -14 140 -80 255
-147 116 -67 365 -211 555 -320 190 -109 356 -205 370 -214 14 -8 35 -21 47
-27 24 -13 655 -378 938 -542 99 -58 205 -118 235 -135 30 -16 60 -33 65 -37
12 -9 187 -110 190 -110 2 0 32 -17 66 -38 35 -22 84 -50 109 -64 25 -14 112
-64 194 -112 100 -57 159 -86 180 -86 21 0 89 33 211 103 99 57 236 136 305
175 69 40 132 76 140 82 8 5 38 22 65 38 28 16 70 40 95 54 25 14 86 49 135
78 50 29 106 61 125 72 19 11 40 24 45 28 6 4 32 19 58 34 52 28 350 200 607
349 85 50 189 109 230 132 41 24 180 104 309 179 128 75 235 136 237 136 3 0
21 11 42 24 20 13 186 109 367 214 182 104 386 222 455 262 69 40 150 86 180
103 30 16 60 33 65 37 9 7 162 96 245 143 64 36 554 319 635 366 44 26 248
144 453 262 l372 214 0 1277 c1 1612 1 2551 0 3887 l0 1058 -356 204 c-195
112 -370 212 -387 222 -18 11 -88 51 -157 90 -69 39 -201 115 -293 169 -93 54
-170 98 -172 98 -2 0 -47 26 -102 58 -54 32 -118 70 -143 84 -96 54 -767 442
-810 468 -25 16 -70 42 -100 58 -30 16 -149 85 -265 152 -115 67 -226 131
-245 141 -19 11 -42 24 -50 29 -18 11 -187 109 -215 125 -11 5 -51 29 -90 52
-38 23 -200 117 -360 209 -687 396 -1003 578 -1045 602 -25 14 -57 33 -72 43
-14 11 -29 19 -33 19 -4 0 -56 29 -115 65 -175 104 -291 168 -332 184 -15 5
-42 2 -78 -9z"/>
</g>
</svg>
